<svg xmlns="http://www.w3.org/2000/svg" id="Layer_2" data-name="Layer 2" viewBox="0 0 153.6 110.19"><defs><style>      .cls-1 {        fill: #f2f2f2;      }    </style></defs><g id="Layer_1-2" data-name="Layer 1"><g><path class="cls-1" d="M12.78,87.59c-1-1.62-1.95-1.63-2.29-1.77l-8.69-.05-.14.15c-1.26,1.31-1.8,2.61-1.62,3.87.19,1.29,1.12,2.16,1.66,2.56l.15.11v.18c.26,4.01.44,8.9.23,10.15l-.03.16-.13.1c-.62.46-1.27,1.38-1.48,1.7l-.09.18c-.35,1.17-.27,2.2.24,3.06.87,1.46,2.69,1.86,2.9,1.9l10.59.31h126.52l9.85-.16c.93-.07,1.69-.49,2.22-1.21,1.53-2.09.74-6.13.57-6.92v-.04s0-7.83,0-7.83v-.04c.46-1.92.24-3.45-.63-4.56-1.32-1.68-3.65-1.7-3.75-1.7h-8.2l.02-.42c.25-4.66-.4-8.76-1.91-12.2-1.23-2.79-3.05-5.16-5.4-7.05-4.09-3.28-8.52-4.12-9.78-4.3h-.1s-1.42-1.05-1.42-1.05l-.45-10.32,1.63-1.9-1.89.24-.05-.4c-.14-1.24-.89-2-1.32-2.35l-.13-.1-.18-1.44h-.41v-2.31l.04-.08c.13-.28.09-.63-.12-.94l-.06-.09v-.11c-.02-.94-.59-1.38-.93-1.56l-.2-.1-.13-2.21v-.05c.09-.36.16-1.02-.19-1.37-.19-.19-.45-.25-.74-.18-.29.07-.52.25-.64.49-.18.35-.1.76-.04.97v.04s.14,2.25.14,2.25l-.27.1c-.62.24-.87.77-1.06,1.16l-.02.05c-.06.13-.13.28-.24.42-.24.32-.32.64-.25.96.04.15.11.29.21.42l.09.11v2.06h-.35l-.34,1.18-.17.08c-1.11.5-1.47,1.68-1.58,2.34l-.07.38-1.78-.26,2.26,2.71v9.44l-1.28,1.28h-.15c-5.1.24-8.8,3.19-10.56,4.92l-.64.63-.25-6.63.19-.12c.54-.34.67-.86.56-1.24l-3.58-6.1-.28-7.08,1.15.16-.3-2.09-.87-.14v-.33c-.04-2.79-.7-5.45-1.95-7.9-1-1.97-2.39-3.81-4.13-5.47-2.89-2.77-5.77-4.11-6.04-4.24l-.16-.05c-1.01-.17-1.76-.56-2.17-1.14-.37-.53-.36-1.07-.33-1.24h0c.06-.27.03-.53,0-.75v-.06c-.02-.07-.03-.14-.03-.2l.15-8.75,1.12-1.79-1.75-.19-.05-.3c-.23-1.4-1.06-2.36-1.53-2.81l-.12-.12v-1.28l-.47.08v-2.61l.95-1.27h-1.14l-.09-.27c-.23-.65-.73-1.03-1.1-1.22l-.2-.1-.12-2.1.08-.11c.2-.28.26-.57.2-.85-.12-.5-.6-.71-.75-.77l-.21-.03c-.58,0-.85.27-.97.48-.23.4-.09.89.02,1.14l.03.07v2.18l-.2.11c-.73.42-1.02,1.11-1.14,1.62l-.07.31h-1.75l1.61,1.21.12,2.38h-.6v1.07l-.2.11c-1.09.6-1.61,1.94-1.83,2.68l-.07.25-1.72.24,1.64,1.64.15,10.52-1.03,1.16-.1.03c-4.47,1.4-7.96,4.45-10.39,9.07-1.98,3.78-2.67,7.58-2.87,9.04l-.05.34h-.63l-1.24,2.23,1.03.21-.15,7.73-.05.09c-.83,1.5-2.51,4.47-2.96,5.04-.32.4-.42.78-.3,1.12.04.12.12.23.22.33l.13.12-.12,6.81-.66-.68c-2.84-2.91-7.86-4.65-9.76-4.76-1.03-.06-1.43-.36-1.58-.52l-.07-.08-.08-.41.31-10.37.93-1.86h-1.55l-.05-.33c-.24-1.49-1.08-2.04-1.64-2.41l-.32-.27c-.16-.47-.13-2.06-.01-3.32.13-1.57-.82-2.42-1.23-2.72l-.17-.12v-2.31l.06-.1c.19-.3.19-.56.16-.72-.11-.51-.63-.73-.69-.75l-.13-.05-.13.02c-.45.08-.76.28-.9.6-.14.31-.08.63,0,.84l.03.08-.13,2.38-.19.11c-.6.34-1.01.79-1.22,1.33-.26.67-.13,1.28-.03,1.59l.02.05v.05c.09,1.66-.08,2.58-.19,2.98l-.03.13-.1.08c-1.28.99-1.7,2.1-1.82,2.85l-.06.33h-2.07l1.78,1.78v10.29l-1.17.8h-.09c-3.92.57-7.25,1.77-9.88,3.58-2.1,1.44-3.78,3.27-4.98,5.45-2.1,3.79-2.02,7.28-2.02,7.31l-.27,7.44h-.78ZM14.68,88.29l.11-8.14c-.02-.65-.12-13.15,16.25-15.38l.11-.02,1.79-1.22v-11.61h.38s-.07-.56-.07-.56c0-.06-.2-1.62,1.67-2.95l.1-.07.05-.11c.05-.11.52-1.12.36-3.8l-.06-.24c-.24-.62-.05-1.45,1.16-1.97l.19-.08.22.09h0c.14.06,1.21.57,1.1,1.99-.15,1.6-.23,3.61.3,4.13.13.13.29.24.46.35.57.37,1.27.83,1.27,2.42v.49h.72l-.38,11.06v.04c-.03.1-.12.65.29,1.2.42.56,1.21.88,2.33.95,1.31.08,3.58.85,5.51,1.88,1.77.94,4.08,2.48,4.98,4.53l.89,2.03.2-11.5-.36-.07.33-.49c.82-1.23,2.58-4.41,2.93-5.04l.06-.1.18-9.46h.72l.04-.45c.01-.15,1.36-14.67,12.9-18.11l.13-.04,1.46-1.65-.16-11.29-.15-.15.15-.81s.44-2.35,1.83-2.73l.36-.1v-.74l.65-.05-.18-3.61h.2l-.05-.53c-.05-.45.11-1.39,1.06-1.67l.23-.07.31.08c.49.12,1.02.51,1.02,1.24v.49h.16v4.06l.46-.08v.6s.21.15.21.15c.06.04,1.51,1.14,1.51,3.03v.44l1.07.12-.44.7-.16,9.03c0,.12.02.27.04.4,0,.06.03.22.03.25v.07s0,.07,0,.07c-.11.47-.02,1.29.44,1.99.38.57,1.16,1.3,2.75,1.58h.05s.05.03.05.03c1.2.57,11.73,5.86,11.45,17.41v.54s-.02,0-.02,0v.15s0,.06,0,.06l.34,8.28,3.65,6.19-.41.16-.09.04-.11.07c-.38.24-.38.43-.27.66l.04.08.35,9.34.83-1.13s1.15-1.55,3.15-3.06c2.62-1.98,5.54-3.06,8.46-3.12h.2s1.84-1.84,1.84-1.84v-10.19l-.41-.49-.06-1.07c-.04-.78.21-2.17,1.35-2.46l.27-.07.29-1.01h.59v-3.58s-.34-.19-.34-.19l.21-.35c.08-.13.15-.27.23-.44.26-.53.38-.74.97-.74h.64c.26.08.67.29.6,1v.28s.15.16.15.16v3.85h.52l.14,1.06.21.12c.14.08,1.41.86,1.16,2.62l-.09.63.38-.05.5,11.43,2.01,1.46h.13c.49.06,4.91.56,9.09,3.72,2.43,1.84,4.3,4.22,5.54,7.07,1.54,3.53,2.13,7.8,1.75,12.69l-.04.52h9.25s1.96.02,3,1.34c.68.87.83,2.14.44,3.77l-.02,8.08.02.16c.08.35.93,4.4-.39,6.2-.36.49-.85.76-1.46.81h-.03s-9.8.16-9.8.16H14.1s-.01,0-.01,0l-10.48-.29h-.04c-.15-.05-1.52-.39-2.14-1.45-.35-.6-.41-1.31-.17-2.16l.02-.07.04-.06c.33-.48.95-1.26,1.29-1.43.17-.09.37-.19.48-1.5.14-1.71.04-5.02-.28-10.11l-.02-.26-.23-.13s-1.36-.79-1.56-2.12c-.12-.85.25-1.78,1.1-2.75l.12-.14h7.95l.08.04c.35.17,1.15.63,1.52,1.45l2.92.06Z"></path><g><path class="cls-1" d="M15.97,103.61c-.09-.22-.28-.35-.53-.35-.27,0-.6.12-.66.72-.04.37-.29.95-.51,1.19-.46.5-1.24.53-2.47.53-1.77,0-2.3-.15-2.6-.42h0c-.08-.07-.22-.33-.3-1.3-.06-.83-.06-2-.06-3.49v-4.17c0-3.6,0-4.25.05-5,.05-.84.24-.92.54-.97.27-.04.63-.07.85-.07s.36-.02.49-.08c.22-.1.34-.29.34-.54s-.14-.45-.38-.54c-.13-.05-.28-.07-.52-.07-.52,0-1.3.02-1.98.04-.51.01-1,.03-1.24.03-.27,0-.7-.01-1.19-.03-.66-.02-1.41-.04-2.05-.04-.25,0-.41.02-.54.07-.24.09-.39.3-.39.55s.12.43.33.53c.12.06.27.08.47.08.28,0,.53.02.68.06h.01c.54.12.66.28.7.98.05.74.05,1.39.05,4.99v4.17c0,2.16,0,4.02-.12,4.99-.09.67-.19.92-.37.96h0c-.16.04-.42.09-.76.09-.73,0-.78.45-.78.59,0,.19.09.64.88.64.24,0,.5-.01.78-.02.29-.01.58-.02.86-.02h.02c.56-.02,1.08-.02,1.33-.02.91,0,1.74.02,2.87.07h0c.26,0,.53.01.81.02.89.02,1.91.05,3.2.05s1.66-.12,1.88-.94c.2-.74.37-2.54.37-2.83,0-.19-.01-.33-.06-.46Z"></path><path class="cls-1" d="M33.65,106.66c-.13-.06-.26-.07-.38-.07-.19,0-.48-.01-.79-.07-.24-.06-.78-.2-1.55-2.04-.75-1.78-2.15-5.3-3.28-8.14-.9-2.25-1.67-4.19-1.89-4.7-.18-.41-.4-.91-.89-.91s-.72.5-.96,1.08l-5.24,13.11c-.41,1.03-.73,1.53-1.45,1.63-.15.02-.42.04-.6.04-.11,0-.26.01-.4.1-.16.1-.25.27-.25.47,0,.24.12.43.33.53.15.07.32.08.47.08.75,0,1.54-.03,2.02-.05.21,0,.38-.01.44-.01.31,0,.7.02,1.07.03.39.02.79.03,1.14.03.68,0,.76-.43.76-.61,0-.29-.17-.43-.27-.48-.14-.08-.3-.09-.45-.09h-.31c-.43,0-.43-.11-.43-.24,0-.16.08-.61.28-1.12l1.09-2.9h4.37l1.61,4.27c-.4.09-.49.35-.49.56,0,.3.24.47.46.52.13.03.27.04.46.05h.09s.01,0,.01,0c1.67.04,3.21.04,3.95.04.45,0,.69-.01.86-.05.46-.1.51-.43.51-.56,0-.22-.11-.41-.3-.5ZM25.79,100.48h-2.97l1.5-4.02,1.46,4.02Z"></path><path class="cls-1" d="M52.73,98.63c-.64-.65-1.47-1.21-2.39-1.62,1.11-.98,2.04-2.19,2.04-4.02,0-.56-.13-1.63-1.03-2.53-.94-.95-2.43-1.43-4.42-1.43-.37,0-.77.02-1.2.03-.5.02-1.07.04-1.69.04-.17,0-.5-.01-.9-.02-.65-.02-1.54-.05-2.32-.05-.25,0-.41.02-.54.07-.24.09-.39.3-.39.55s.12.43.33.53c.12.06.27.08.47.08.34,0,.69.03.83.06h.01c.54.12.66.28.7.99.05.75.05,1.4.05,5v4.17c0,2.16,0,4.03-.12,5-.09.67-.19.92-.37.96h0c-.16.04-.42.09-.77.09-.73,0-.78.45-.78.59,0,.19.09.64.88.64.24,0,.5-.01.78-.02.29-.01.58-.02.86-.02h.02c.56-.02,1.08-.02,1.33-.02.34,0,1.03.02,1.75.07h.01c.32.01.64.03.92.04.33.02.6.03.76.03,2.11,0,3.87-.6,5.08-1.74,1.07-1,1.66-2.36,1.66-3.83,0-1.35-.53-2.61-1.54-3.64ZM45.93,98.42c.23,0,.43,0,.74.02.82.04,1.32.18,1.75.49h0c1.92,1.34,2.13,3.52,2.13,4.39,0,.96-.3,1.67-.88,2.12-.6.46-1.31.51-1.59.51-.5,0-1-.02-1.58-.25-.48-.19-.58-.29-.58-1.9v-5.38ZM48.26,96.28h-.01c-.29.27-.68.36-1.44.36-.38,0-.68-.01-.88-.04v-5.75s0-.02,0-.03c.16-.02.34-.02.59-.02.99,0,1.58.58,1.91,1.06.41.6.65,1.43.65,2.21,0,1-.28,1.77-.82,2.2Z"></path><path class="cls-1" d="M70.67,106.66c-.13-.06-.26-.07-.38-.07-.19,0-.48-.01-.79-.07-.24-.06-.78-.2-1.55-2.04-.75-1.78-2.15-5.3-3.28-8.14-.9-2.25-1.67-4.19-1.89-4.7-.18-.41-.4-.91-.89-.91s-.72.5-.96,1.08l-5.24,13.11c-.41,1.03-.73,1.53-1.45,1.63-.15.02-.42.04-.6.04-.11,0-.26.01-.4.1-.16.1-.25.27-.25.47,0,.24.12.43.33.53.15.07.32.08.47.08.75,0,1.54-.03,2.02-.05.21,0,.38-.01.44-.01.31,0,.7.02,1.07.03.39.02.79.03,1.14.03.68,0,.76-.43.76-.61,0-.29-.17-.43-.27-.48-.14-.08-.3-.09-.45-.09h-.31c-.43,0-.43-.11-.43-.24,0-.16.08-.61.28-1.12l1.09-2.9h4.37l1.61,4.27c-.4.09-.49.35-.49.56,0,.3.24.47.46.52.13.03.27.04.46.05h.09s.01,0,.01,0c1.67.04,3.21.04,3.95.04.45,0,.69-.01.86-.05.46-.1.51-.43.51-.56,0-.22-.11-.41-.3-.5ZM62.81,100.48h-2.97l1.5-4.02,1.46,4.02Z"></path><path class="cls-1" d="M108.14,106.59c-.29,0-.74-.04-1.01-.08h0c-.36-.05-.43-.19-.49-.66-.08-.88-.08-2.49-.08-4.53v-3.67c0-3.17,0-3.74.04-4.4.04-.74.21-.77.44-.81.23-.04.37-.06.56-.06.68,0,.74-.47.74-.61,0-.18-.1-.41-.39-.51-.12-.04-.26-.06-.45-.06-.44,0-1.02.02-1.53.04-.4.01-.78.03-1.01.03-.28,0-.71-.01-1.17-.03-.55-.02-1.11-.03-1.54-.03-.22,0-.37.02-.5.05-.3.09-.41.33-.41.52,0,.14.05.61.74.61.26,0,.48.02.64.07h.02c.14.04.35.08.4.8.04.66.04,1.23.04,4.4v3.67c0,1.96,0,3.65-.1,4.5h0c-.07.65-.19.68-.28.7h0c-.14.03-.37.08-.66.08-.68,0-.74.44-.74.57,0,.14.06.61.82.61.48,0,1.11-.02,1.66-.04.41-.01.77-.02.97-.02.21,0,.55,0,.95.02.65.02,1.46.04,2.31.04.18,0,.34-.03.46-.09.21-.1.34-.3.34-.52,0-.1-.04-.57-.74-.57Z"></path><path class="cls-1" d="M121.27,103.8c-.51,0-.59.47-.63.64h0c-.14.84-.37,1.09-.71,1.25-.46.21-1.29.21-1.79.21-1.01,0-1.55-.08-1.8-.26-.17-.12-.28-.35-.3-1.1-.01-.42,0-1.54,0-2.36,0-.35,0-.66,0-.86v-1.45c.77,0,2.32.03,2.64.06.34.04.72.11.82.51.04.16.05.33.06.49,0,.07,0,.13.01.19.01.34.25.57.59.57.26,0,.47-.16.55-.42.04-.13.04-.27.04-.38,0-.07.02-.39.04-.65.02-.26.03-.53.04-.72.05-.69.11-1.07.14-1.27.02-.13.03-.2.03-.28,0-.33-.23-.57-.55-.57-.28,0-.45.19-.61.38l-.03.03c-.1.11-.36.15-.74.18-.28.02-1.38.04-3.05.04v-4.91c.72,0,2.38.05,2.66.08.92.11.99.29,1.07.5h0c.07.17.09.46.09.6,0,.66.49.7.59.7.12,0,.5-.04.6-.55h0c.03-.18.05-.54.08-1,.01-.18.02-.35.03-.41h0c.04-.64.1-.94.13-1.13.02-.11.04-.19.04-.27,0-.41-.27-.59-.53-.59-.13,0-.24.04-.33.07-.03,0-.06.02-.08.02h-.02c-.18.05-.66.1-.83.12-.28.01-2.21.02-5.19.02-.24,0-.62-.01-1.06-.03h-.24s-.02,0-.02,0c-.25,0-.52,0-.81-.01-.29,0-.59-.01-.88-.01-.22,0-.37.02-.49.07-.23.09-.37.29-.37.53,0,.18.07.59.76.59.33,0,.62.03.72.05h.01c.43.09.54.2.58.82.04.66.04,1.23.04,4.4v3.67c0,1.9,0,3.54-.1,4.39-.08.55-.16.78-.28.8h0c-.14.03-.37.08-.66.08-.68,0-.74.44-.74.57,0,.14.06.61.82.61.21,0,.44,0,.69-.02.25-.01.51-.02.75-.02h.02c.49-.02.95-.02,1.17-.02.58,0,1.2.02,2.15.06h0c.19,0,.39.01.61.02.79.02,1.78.05,3.01.05.8,0,1.29,0,1.52-.84h0c.11-.46.28-1.91.28-2.42,0-.13,0-.26-.04-.38-.07-.24-.28-.39-.53-.39Z"></path><path class="cls-1" d="M115.5,90.26h1.73s.07-.02.09-.04l2.8-3.53c.06-.08,0-.19-.09-.19l-2.77.03s-.08.03-.1.06l-1.75,3.5c-.04.08.02.17.1.17Z"></path><path class="cls-1" d="M150.74,104.19c-.07-.24-.28-.39-.53-.39-.51,0-.59.47-.63.64h0c-.14.84-.37,1.09-.71,1.25-.46.21-1.29.21-1.79.21-1.01,0-1.55-.08-1.8-.26-.17-.12-.28-.35-.3-1.1-.01-.42,0-1.54,0-2.36,0-.35,0-.66,0-.86v-1.45c.77,0,2.32.03,2.64.06.34.04.72.11.82.51.04.16.05.33.06.49,0,.07,0,.13.01.19.01.34.25.57.59.57.26,0,.47-.16.55-.42.04-.13.04-.27.04-.38,0-.07.02-.39.04-.65.02-.26.03-.53.04-.72.05-.69.11-1.07.14-1.27.02-.13.03-.2.03-.28,0-.33-.23-.57-.55-.57-.28,0-.45.19-.61.38l-.03.03c-.1.11-.36.15-.74.18-.28.02-1.38.04-3.05.04v-4.91c.72,0,2.38.05,2.66.08.92.11.99.29,1.07.5h0c.07.17.09.46.09.6,0,.66.49.7.59.7.12,0,.5-.04.6-.55h0c.03-.18.05-.54.08-1,.01-.18.02-.35.03-.42h0c.04-.64.1-.94.13-1.13.02-.11.04-.19.04-.27,0-.41-.27-.59-.53-.59-.13,0-.24.04-.33.07-.03,0-.06.02-.08.02h-.02c-.18.05-.66.1-.83.12-.28.01-2.21.02-5.19.02-.24,0-.62-.01-1.06-.03h-.24s-.02,0-.02,0c-.25,0-.52,0-.81-.01-.29,0-.59-.01-.88-.01-.22,0-.37.02-.49.07-.23.09-.37.29-.37.53,0,.18.07.59.76.59.33,0,.62.03.72.05h.01c.43.09.54.2.58.82.04.66.04,1.23.04,4.4v3.67c0,1.9,0,3.54-.1,4.39-.04.26-.07.45-.12.58h-2.28c-.36-.18-.83-.49-1.38-1.06-1.05-1.11-2.25-2.62-3.78-4.54-.16-.2-.32-.4-.48-.61,1.82-1.55,2.6-2.98,2.6-4.73,0-1.45-.83-2.67-1.59-3.19-1.24-.85-2.75-.97-4.07-.97-.32,0-.85.01-1.42.03-.57.02-1.17.03-1.52.03-.16,0-.47,0-.83-.02-.6-.02-1.35-.04-2.03-.04-.22,0-.37.02-.49.07-.23.09-.37.29-.37.53,0,.18.07.59.76.59.33,0,.62.03.72.05h.01c.43.09.54.2.58.82.04.66.04,1.23.04,4.4v3.67c0,1.9,0,3.54-.1,4.39-.08.55-.16.78-.28.8h0c-.14.03-.37.08-.66.08-.68,0-.74.44-.74.57,0,.14.06.61.82.61.5,0,1.17-.02,1.71-.04.37-.01.68-.02.84-.02.1,0,.35,0,.66.02.63.02,1.59.05,2.4.05.76,0,.82-.47.82-.61,0-.39-.34-.57-.65-.57-.23,0-.67-.04-.97-.08-.27-.04-.4-.12-.47-.79h0c-.1-.86-.1-2.51-.1-4.42v-.05l1.57.04h0s.06,0,.07,0h0c.14.17.55.74.97,1.35.34.48.72,1.02,1.07,1.51,1.25,1.72,2.06,2.68,2.99,3.19.63.34,1.21.44,2.42.44h1.98c.08,0,.15,0,.22-.01.06,0,.13.01.2.01.21,0,.44,0,.69-.02.25-.01.51-.02.75-.02h.02c.49-.02.95-.02,1.17-.02.58,0,1.2.02,2.15.06h0c.19,0,.39.01.61.02.79.02,1.78.05,3.01.05.8,0,1.29,0,1.52-.84h0c.11-.46.28-1.91.28-2.42,0-.13,0-.26-.04-.38ZM131.67,99.2c-.28.2-.46.28-1.25.28-.51,0-1.02-.06-1.37-.16,0,0,0-.01,0-.02v-6.27c.26-.04.72-.04.89-.04.64,0,1.31.26,1.79.69.66.6,1,1.52,1,2.72,0,1.76-.67,2.51-1.06,2.8Z"></path><path class="cls-1" d="M96.07,98.25c.96-.86,1.76-1.92,1.76-3.52,0-.5-.12-1.45-.92-2.26-.84-.84-2.16-1.27-3.92-1.27-.33,0-.68.01-1.06.03-.44.02-.94.04-1.49.04-.15,0-.43,0-.79-.02-.57-.02-1.35-.04-2.05-.04-.22,0-.37.02-.49.07-.23.09-.37.29-.37.53,0,.18.07.59.76.59.33,0,.62.03.72.05h.01c.43.09.54.2.58.82.04.66.04,1.23.04,4.4v3.67c0,1.9,0,3.54-.1,4.39-.03.23-.06.4-.1.53h-2.39c-.35-.18-.78-.49-1.28-1.01-1.05-1.11-2.25-2.62-3.78-4.54-.16-.2-.32-.4-.48-.61,1.82-1.55,2.6-2.98,2.6-4.73,0-1.45-.83-2.67-1.59-3.19-1.24-.85-2.75-.97-4.07-.97-.32,0-.85.01-1.42.03-.57.02-1.17.03-1.52.03-.16,0-.47,0-.83-.02-.6-.02-1.35-.04-2.03-.04-.22,0-.37.02-.49.07-.23.09-.37.29-.37.53,0,.18.07.59.76.59.33,0,.62.03.72.05h.01c.43.09.54.2.58.82.04.66.04,1.23.04,4.4v3.67c0,1.9,0,3.54-.1,4.39-.08.55-.16.78-.28.8h0c-.14.03-.37.08-.66.08-.68,0-.74.44-.74.57,0,.14.06.61.82.61.5,0,1.17-.02,1.71-.04.37-.01.68-.02.84-.02.1,0,.35,0,.66.02.63.02,1.59.05,2.4.05.76,0,.82-.47.82-.61,0-.39-.34-.57-.65-.57-.23,0-.67-.04-.97-.08-.27-.04-.4-.12-.47-.79h0c-.1-.86-.1-2.51-.1-4.42v-.05l1.57.04h0s.06,0,.07,0h0c.14.17.55.74.97,1.35.34.48.72,1.02,1.07,1.51,1.25,1.72,2.06,2.68,2.99,3.19.63.34,1.21.44,2.42.44h1.98c.08,0,.15,0,.22-.01.06,0,.13.01.2.01.21,0,.44,0,.69-.02.25-.01.51-.02.75-.02h.02c.49-.02.95-.02,1.17-.02.29,0,.9.02,1.54.06h.01c.28.01.56.02.81.04.29.01.52.03.67.03,1.87,0,3.43-.53,4.5-1.55.95-.89,1.47-2.1,1.47-3.41,0-1.2-.47-2.32-1.37-3.23-.55-.56-1.27-1.05-2.05-1.4ZM78.97,99.2c-.28.2-.46.28-1.25.28-.51,0-1.02-.06-1.37-.16,0,0,0-.01,0-.02v-6.27c.26-.04.72-.04.89-.04.64,0,1.31.26,1.79.69.66.6,1,1.52,1,2.72,0,1.76-.67,2.51-1.06,2.8ZM92.15,92.87c.13-.01.27-.01.47-.01.68,0,1.23.31,1.64.91.35.52.56,1.24.56,1.92,0,.87-.24,1.52-.71,1.9h-.01c-.24.23-.58.31-1.24.31-.31,0-.55,0-.72-.03v-4.99ZM95.37,105.65c-.51.39-1.13.44-1.37.44-.44,0-.87-.02-1.37-.22-.39-.16-.48-.19-.48-1.63v-4.69c.18,0,.35,0,.6.02.72.04,1.14.15,1.52.43h0c1.67,1.17,1.85,3.06,1.85,3.82,0,.83-.25,1.44-.75,1.83Z"></path></g></g></g></svg>