<svg xmlns="http://www.w3.org/2000/svg" id="Layer_2" data-name="Layer 2" viewBox="0 0 110.26 57.11"><defs><style>      .cls-1 {        fill: #f2f2f2;      }    </style></defs><g id="Layer_1-2" data-name="Layer 1"><g><path class="cls-1" d="M52.9,15.91c0,1.9-.63,3.4-1.89,4.48-1.28,1.07-2.96,1.6-5.05,1.57h-4.59v6.52h-3.42V9.79h8.02c2.11,0,3.8.56,5.05,1.67,1.25,1.12,1.88,2.6,1.88,4.44M49.31,15.93c0-.98-.32-1.73-.96-2.26-.64-.52-1.51-.79-2.63-.79h-4.35v6.1h4.35c1.16,0,2.04-.27,2.66-.81.62-.54.92-1.29.92-2.25"></path><path class="cls-1" d="M55.75,9.79h3.42v11.75c0,1.33.36,2.34,1.09,3.04.73.7,1.74,1.06,3.03,1.06s2.35-.36,3.06-1.08,1.06-1.73,1.06-3.02v-11.75h3.41v11.93c0,2.16-.67,3.87-2.01,5.13-1.34,1.25-3.18,1.88-5.51,1.88s-4.16-.63-5.52-1.89c-1.35-1.26-2.03-2.96-2.03-5.12v-11.93Z"></path><path class="cls-1" d="M90.82,28.48h-4.2l-5.65-6.83h-2.71v6.83h-3.42V9.79h8.68c2.05,0,3.66.53,4.84,1.6,1.18,1.07,1.77,2.47,1.77,4.2,0,1.58-.48,2.87-1.43,3.89-.95,1.02-2.24,1.62-3.86,1.81l5.96,7.18ZM83.21,18.84c1.06,0,1.88-.27,2.47-.81.59-.54.89-1.28.89-2.21s-.3-1.66-.9-2.18c-.6-.52-1.42-.78-2.46-.78h-4.95v5.98h4.95Z"></path><path class="cls-1" d="M104.98,24.64h-8.07l-1.36,3.84h-3.79l7.06-18.69h4.15l7.29,18.69h-3.91l-1.37-3.84ZM104.04,21.96l-3.1-8.76-3.1,8.76h6.19Z"></path><polygon class="cls-1" points="49.93 33.71 55.29 48.95 60.62 33.71 64.44 33.71 57.43 52.39 53.24 52.39 46.04 33.71 49.93 33.71"></polygon><rect class="cls-1" x="66.55" y="33.71" width="3.42" height="18.69"></rect><path class="cls-1" d="M74.16,33.71h7.13c2.03,0,3.77.39,5.22,1.17,1.45.78,2.53,1.87,3.26,3.26.73,1.39,1.09,3.03,1.09,4.91,0,2.95-.85,5.25-2.56,6.89-1.71,1.64-4.04,2.46-7,2.46h-7.13v-18.69ZM81.27,49.37c1.9,0,3.38-.56,4.42-1.68,1.04-1.12,1.56-2.66,1.56-4.62s-.53-3.59-1.59-4.69c-1.06-1.1-2.52-1.65-4.39-1.65h-3.69v12.65h3.69Z"></path><path class="cls-1" d="M104.98,48.56h-8.07l-1.36,3.84h-3.79l7.06-18.69h4.15l7.29,18.69h-3.91l-1.37-3.84ZM104.04,45.88l-3.1-8.76-3.1,8.76h6.19Z"></path><path class="cls-1" d="M19.77,57.11c-.44,0-.89-.02-1.33-.07-2.9-.31-5.39-1.64-6.34-3.39-.69-1.26-.81-2.66-.35-4.06.71-2.13,2.77-4.17,5.52-5.44,4.67-2.15,8.15-6.04,8.15-8.07,0-1.26-.48-2.33-1.36-3.02-.89-.69-2.06-.9-3.31-.59-1.57.39-2.24,2.29-2.25,2.31-.16.46-.59.76-1.07.74-.48-.01-.9-.34-1.03-.8-.09-.31-.99-3.11-3.95-2.51-1.24.25-2.01.98-2.29,2.19-.48,2.06.63,4.89,2.47,6.3.48.37.57,1.06.2,1.54-.37.48-1.06.57-1.54.2-2.54-1.96-3.95-5.63-3.27-8.55.48-2.06,1.9-3.42,4-3.84,2.69-.54,4.47.68,5.5,2.08.6-.74,1.48-1.49,2.69-1.79,1.89-.47,3.79-.11,5.2.99,1.4,1.1,2.21,2.83,2.21,4.75,0,3.9-5.63,8.31-9.43,10.06-2.18,1.01-3.85,2.59-4.36,4.13-.27.82-.21,1.58.19,2.31.49.9,2.15,1.99,4.64,2.25,2.27.24,6.69-.08,10.87-4.92,3.91-4.53,3.63-10.06,2.7-13.9-.37-1.52-.97-3.06-1.79-4.57-.92-1.69-2.75-5.54-4.7-12.38-2.4-8.39-4.96-8.83-7.67-9.29-.18-.03-.36-.06-.54-.09-1.19-.22-3.14.15-4.83,1.46-1.38,1.07-3.08,3.15-3.35,7.01-.49,6.85-4.27,12.97-5.02,14.12-.56.86-.99,1.73-1.29,2.57-2.91,8.38,2.52,13.95,4.26,15.46.46.4.51,1.09.11,1.55-.4.46-1.09.51-1.55.11-2-1.74-8.26-8.15-4.9-17.84.35-1.01.86-2.04,1.52-3.05,1.93-2.97,4.32-8.18,4.67-13.08.33-4.67,2.47-7.25,4.2-8.59,2.37-1.84,4.95-2.18,6.57-1.89.17.03.34.06.52.09,3.76.64,6.84,1.85,9.41,10.86,1.9,6.64,3.65,10.33,4.52,11.94.92,1.69,1.59,3.4,2,5.11,1.05,4.34,1.34,10.61-3.17,15.85-3.19,3.7-7.29,5.74-11.44,5.74"></path><path class="cls-1" d="M16.64,9.67c-.61,0-1.1-.49-1.1-1.1V3.12c0-.61.49-1.1,1.1-1.1s1.1.49,1.1,1.1v5.45c0,.61-.49,1.1-1.1,1.1"></path><path class="cls-1" d="M26.12.02c-9.31.67-9.76,8.37-9.76,8.44v.21s.2,0,.2,0c.17,0,.34,0,.5,0C25.59,8.69,26.33.32,26.34.24l.02-.24-.24.02Z"></path></g></g></svg>