<svg xmlns="http://www.w3.org/2000/svg" id="Layer_2" data-name="Layer 2" viewBox="0 0 155.81 57.22"><defs><style>      .cls-1 {        fill: #f2f2f2;      }    </style></defs><g id="Layer_1-2" data-name="Layer 1"><g><g><polygon class="cls-1" points="27.58 28.16 27.55 28.19 27.5 28.14 27.58 28.16"></polygon><polygon class="cls-1" points="28.05 28.7 28 28.74 27.92 28.65 28.04 28.63 28.05 28.7"></polygon><polygon class="cls-1" points="28.11 29.32 28 29.33 28.05 29.23 28.1 29.26 28.11 29.32"></polygon><path class="cls-1" d="M28.11,27.84s-.06.01-.09.02l-.03-.16.12.14Z"></path><polygon class="cls-1" points="28.48 29.46 28.33 29.46 28.24 29.33 28.48 29.46"></polygon><polygon class="cls-1" points="28.52 28.28 28.47 28.32 28.41 28.31 28.44 28.2 28.52 28.28"></polygon><polygon class="cls-1" points="28.61 28.36 28.36 28.42 28.47 28.32 28.61 28.36"></polygon><polygon class="cls-1" points="28.74 29.47 28.61 29.53 28.48 29.46 28.74 29.47"></polygon><polygon class="cls-1" points="28.95 29.47 28.95 29.58 28.86 29.52 28.9 29.47 28.95 29.47"></polygon><polygon class="cls-1" points="29.19 28.71 29.17 28.87 29.07 28.6 29.19 28.71"></polygon><polygon class="cls-1" points="29.31 28.67 29.24 28.75 29.19 28.71 29.2 28.65 29.31 28.67"></polygon><path class="cls-1" d="M29.5,29.95l-.04-.03s.02-.02.02-.03l.02.06Z"></path><path class="cls-1" d="M29.89,29.42h-.15s.02-.07.02-.1l.13.1Z"></path><path class="cls-1" d="M52.69,38.19c1.18-2.94,1.83-6.15,1.83-9.52l-12.63-.43c0-.17,0-.33-.03-.5l12.54-1.59c-.42-4.33-1.91-8.34-4.21-11.77l-10.62,6.9c-.09-.15-.19-.29-.31-.42l9.41-8.52c-1.94-2.38-4.32-4.41-7-5.94l-6.63,10.8c-.15-.08-.3-.16-.45-.23l4.83-11.73c-2.75-1.26-5.75-2.04-8.91-2.25l-1.36,12.62c-.16,0-.33,0-.49,0l-.68-12.65c-3.7.11-7.21,1-10.35,2.52l5,11.64c-.15.07-.3.15-.44.23l-6.77-10.66c-3.07,1.86-5.71,4.35-7.75,7.29l10.01,7.64c-.09.13-.18.28-.26.42l-11.08-5.93c-1.59,2.82-2.66,5.97-3.07,9.33l12.39,1.73c-.02.16-.04.33-.05.49l-12.53.26c-.02.25-.02.5-.02.75,0,2.89.48,5.66,1.36,8.25l11.89-3.75c.06.16.12.32.18.48l-11.15,5.6c1.11,2.49,2.62,4.77,4.45,6.76l9.7-7.84c.11.12.23.23.35.34l-8.3,9.25c2.33,2.11,5.05,3.79,8.04,4.94l5.4-11.28c.15.05.3.09.45.13l-3.52,11.91c2.19.62,4.5.94,6.88.94,1.5,0,2.96-.13,4.39-.38l-1.68-12.34c.16-.04.33-.08.49-.12l3.62,11.92h.01c2.91-.79,5.59-2.08,7.99-3.79l-6.84-10.45c.13-.11.26-.21.38-.32l8.42,9.23c2.5-2.13,4.58-4.75,6.1-7.71l-10.85-6.4c.06-.13.12-.27.17-.41l11.7,4.57ZM29.89,29.42l9.35,7-9.74-6.47,5.04,10.55-5.61-10.24v-.02s0,.02,0,.02l-.43,11.67-.21-11.61v-.09s-.05.08-.05.08l-5.77,10.06,5.2-10.36.04-.08-.08.05-9.77,6.22,9.44-6.78.05-.03h-.06l-11.59.98,11.57-1.63-10.77-4.54,11.01,3.94-7.43-9.03,7.92,8.59-2.39-11.43,3.03,11.28,3.19-11.24-2.56,11.42,3.12-3.26c-.58-.49-.81-1.31-.52-2.06.37-.96,1.45-1.44,2.4-1.07.27.11.5.26.68.46l2.41-2.52-2.29,2.67c.39.49.51,1.17.27,1.8-.37.95-1.44,1.43-2.4,1.06-.08-.03-.15-.07-.22-.11l-2.96,3.46,6.36-2.13c-.08-.26-.08-.55.03-.83.25-.67,1-1,1.67-.74.35.13.62.41.74.74l2.28-.76-2.24.89c.07.25.06.53-.04.8-.26.66-1,1-1.67.74-.3-.12-.53-.33-.67-.59l-6.25,2.49,11.55,1.86-11.62-1.21Z"></path><g><g><path class="cls-1" d="M28.66,15.6c.16,0,.33,0,.49,0l-.33,3.1-.16-3.11Z"></path><path class="cls-1" d="M30.83,0l-.32,2.99c-.57-.04-1.14-.06-1.72-.06-.27,0-.54,0-.81.02l-.15-2.9,3-.05Z"></path><path class="cls-1" d="M34.59,16.97c.15.07.3.15.45.23l-1.64,2.66,1.19-2.89Z"></path><path class="cls-1" d="M43.25,3.82l-1.58,2.58c-.72-.44-1.47-.82-2.24-1.16l1.09-2.66,2.73,1.24Z"></path><path class="cls-1" d="M39.26,20.86c.12.13.22.27.31.42l-2.7,1.75,2.39-2.17Z"></path><path class="cls-1" d="M52.65,12.78l-2.46,1.6c-.47-.7-.97-1.39-1.52-2.04l2.04-1.85,1.94,2.29Z"></path><path class="cls-1" d="M16.43,2.68l1.2,2.79c-.76.37-1.5.77-2.21,1.21l-1.58-2.48,2.59-1.52Z"></path><path class="cls-1" d="M23.86,19.97l-1.67-2.63c.14-.08.29-.16.44-.23l1.23,2.86Z"></path><path class="cls-1" d="M19.58,52.69c.76.29,1.54.55,2.33.76l-.96,3.25-2.84-.95,1.47-3.06Z"></path><path class="cls-1" d="M26.24,38.78l-.81,2.76c-.15-.04-.3-.08-.45-.13l1.26-2.63Z"></path><path class="cls-1" d="M11.54,47.75l-2.17,2.42-2.16-2.08,2.58-2.09c.55.61,1.14,1.2,1.75,1.75Z"></path><path class="cls-1" d="M21.84,36.26l-2,2.24c-.12-.11-.24-.22-.35-.34l2.35-1.9Z"></path><path class="cls-1" d="M5.2,12.09l2.47,1.88c-.48.68-.93,1.4-1.33,2.13l-2.65-1.42,1.51-2.59Z"></path><path class="cls-1" d="M20.16,23.5l-2.74-1.47c.08-.14.17-.29.26-.42l2.48,1.89Z"></path><path class="cls-1" d="M4.42,36.91c.26.8.57,1.57.92,2.33l-2.69,1.35-1.25-2.73,3.02-.95Z"></path><path class="cls-1" d="M19.35,32.2l-2.86,1.44c-.06-.16-.12-.32-.18-.48l3.04-.96Z"></path><path class="cls-1" d="M.04,24.98l3.23.45c-.11.81-.18,1.64-.19,2.48l-3.08.07.04-3Z"></path><path class="cls-1" d="M18.68,27.58l-3.07.07c.01-.16.03-.33.05-.49l3.02.42Z"></path><path class="cls-1" d="M38.41,32.61l2.58,1.01c-.05.14-.11.28-.17.41l-2.41-1.42Z"></path><path class="cls-1" d="M55.81,39.41l-1.19,2.76-2.95-1.74c.38-.73.72-1.47,1.02-2.24l3.12,1.22Z"></path><path class="cls-1" d="M35.06,36.62l2.09,2.29c-.12.11-.25.21-.38.32l-1.71-2.61Z"></path><path class="cls-1" d="M47.65,50.42l-2.29,1.94-1.75-2.68c.68-.47,1.33-.98,1.96-1.54l2.08,2.28Z"></path><path class="cls-1" d="M31.08,38.57l.91,2.98c-.16.04-.33.08-.49.12l-.42-3.1Z"></path><path class="cls-1" d="M36.52,56.44l-2.9.78-.44-3.21c.83-.14,1.64-.32,2.43-.54h.01l.9,2.97Z"></path><path class="cls-1" d="M41.86,27.74c.02.17.03.33.03.5l-3.11-.11,3.08-.39Z"></path><path class="cls-1" d="M54.52,28.67h0c0-.86-.04-1.7-.12-2.52l2.92-.37.27,2.99-3.07-.1Z"></path></g><polygon class="cls-1" points="27.58 28.16 27.55 28.19 27.5 28.14 27.58 28.16"></polygon><path class="cls-1" d="M27.7,29.93l-.04.08-5.2,10.36c-.92-.5-1.79-1.12-2.6-1.85t-.02-.02c-.12-.11-.24-.22-.35-.34-.62-.6-1.17-1.26-1.64-1.96l9.77-6.22.08-.05Z"></path><polygon class="cls-1" points="28.05 28.7 28 28.74 27.92 28.65 28.04 28.63 28.05 28.7"></polygon><polygon class="cls-1" points="28.11 29.32 28 29.33 28.05 29.23 28.1 29.26 28.11 29.32"></polygon><path class="cls-1" d="M28.11,27.84s-.06.01-.09.02l-.03-.16.12.14Z"></path><polygon class="cls-1" points="28.48 29.46 28.33 29.46 28.24 29.33 28.48 29.46"></polygon><polygon class="cls-1" points="28.52 28.28 28.47 28.32 28.41 28.31 28.44 28.2 28.52 28.28"></polygon><polygon class="cls-1" points="28.61 28.36 28.36 28.42 28.47 28.32 28.61 28.36"></polygon><polygon class="cls-1" points="28.74 29.47 28.61 29.53 28.48 29.46 28.74 29.47"></polygon><polygon class="cls-1" points="28.95 29.47 28.95 29.58 28.86 29.52 28.9 29.47 28.95 29.47"></polygon><polygon class="cls-1" points="29.19 28.71 29.17 28.87 29.07 28.6 29.19 28.71"></polygon><polygon class="cls-1" points="29.31 28.67 29.24 28.75 29.19 28.71 29.2 28.65 29.31 28.67"></polygon><path class="cls-1" d="M29.5,29.95l-.04-.03s.02-.02.02-.03l.02.06Z"></path><path class="cls-1" d="M29.89,29.42h-.15s.02-.07.02-.1l.13.1Z"></path><path class="cls-1" d="M41.89,28.24c.09,1.82-.21,3.66-.9,5.38-.05.14-.11.28-.17.41-.56,1.3-1.34,2.53-2.35,3.63-.42.46-.86.87-1.32,1.25-.12.11-.25.21-.38.32-1.44,1.11-3.07,1.89-4.78,2.32-.16.04-.33.08-.49.12-2,.42-4.08.38-6.07-.13-.15-.04-.3-.08-.45-.13-.87-.25-1.71-.6-2.52-1.04l5.77-10.06.04-.08v.09s.22,11.61.22,11.61l.43-11.67v-.02.02s5.62,10.24,5.62,10.24l-5.04-10.55,9.74,6.47-9.35-7,11.62,1.21-11.55-1.86,6.25-2.49c.14.26.37.47.67.59.67.26,1.41-.08,1.67-.74.1-.27.11-.55.04-.8l2.24-.89-2.28.76c-.12-.33-.39-.61-.74-.74-.67-.26-1.42.07-1.67.74-.11.28-.11.57-.03.83l-6.36,2.13,2.96-3.46c.07.04.14.08.22.11.96.37,2.03-.11,2.4-1.06.24-.63.12-1.31-.27-1.8l2.29-2.67-2.41,2.52c-.18-.2-.41-.35-.68-.46-.95-.37-2.03.11-2.4,1.07-.29.75-.06,1.57.52,2.06l-3.12,3.26,2.56-11.42-3.19,11.24-3.03-11.28,2.39,11.43-7.92-8.59,7.43,9.03-11.01-3.94,10.77,4.54-11.57,1.63,11.59-.98h.06l-.05.03-9.44,6.78c-.56-.81-1.01-1.67-1.36-2.56-.06-.16-.12-.32-.18-.48-.63-1.77-.86-3.65-.7-5.51.01-.16.03-.33.05-.49.22-1.78.8-3.53,1.76-5.13.08-.14.17-.29.26-.42.39-.6.83-1.17,1.32-1.71.95-1.04,2.03-1.9,3.19-2.56.14-.08.29-.16.44-.23,1.87-.99,3.95-1.5,6.03-1.51.16,0,.33,0,.49,0,1.87.05,3.73.51,5.44,1.36.15.07.3.15.45.23.91.5,1.78,1.11,2.58,1.84.62.56,1.17,1.17,1.64,1.82.12.13.22.27.31.42,1.35,1.94,2.12,4.18,2.29,6.46.02.17.03.33.03.5Z"></path><g><g><polygon class="cls-1" points="29.31 28.67 29.24 28.75 29.19 28.71 29.2 28.65 29.31 28.67"></polygon><polygon class="cls-1" points="29.19 28.71 29.17 28.87 29.07 28.6 29.19 28.71"></polygon><polygon class="cls-1" points="29.31 28.67 29.24 28.75 29.19 28.71 29.2 28.65 29.31 28.67"></polygon><polygon class="cls-1" points="29.31 28.67 29.24 28.75 29.19 28.71 29.2 28.65 29.31 28.67"></polygon><path class="cls-1" d="M29.89,29.42h-.15s.02-.07.02-.1l.13.1Z"></path><polygon class="cls-1" points="28.95 29.47 28.95 29.58 28.86 29.52 28.9 29.47 28.95 29.47"></polygon><path class="cls-1" d="M29.5,29.95l-.04-.03s.02-.02.02-.03l.02.06Z"></path><path class="cls-1" d="M29.89,29.42h-.15s.02-.07.02-.1l.13.1Z"></path><polygon class="cls-1" points="28.95 29.47 28.95 29.58 28.86 29.52 28.9 29.47 28.95 29.47"></polygon><path class="cls-1" d="M29.5,29.95l-.04-.03s.02-.02.02-.03l.02.06Z"></path><polygon class="cls-1" points="28.74 29.47 28.61 29.53 28.48 29.46 28.74 29.47"></polygon><polygon class="cls-1" points="28.95 29.47 28.95 29.58 28.86 29.52 28.9 29.47 28.95 29.47"></polygon><polygon class="cls-1" points="28.11 29.32 28 29.33 28.05 29.23 28.1 29.26 28.11 29.32"></polygon><polygon class="cls-1" points="28.48 29.46 28.33 29.46 28.24 29.33 28.48 29.46"></polygon><polygon class="cls-1" points="28.11 29.32 28 29.33 28.05 29.23 28.1 29.26 28.11 29.32"></polygon><polygon class="cls-1" points="28.05 28.7 28 28.74 27.92 28.65 28.04 28.63 28.05 28.7"></polygon><polygon class="cls-1" points="28.11 29.32 28 29.33 28.05 29.23 28.1 29.26 28.11 29.32"></polygon><polygon class="cls-1" points="27.58 28.16 27.55 28.19 27.5 28.14 27.58 28.16"></polygon><polygon class="cls-1" points="28.05 28.7 28 28.74 27.92 28.65 28.04 28.63 28.05 28.7"></polygon><polygon class="cls-1" points="27.58 28.16 27.55 28.19 27.5 28.14 27.58 28.16"></polygon><polygon class="cls-1" points="28.05 28.7 28 28.74 27.92 28.65 28.04 28.63 28.05 28.7"></polygon><path class="cls-1" d="M28.11,27.84s-.06.01-.09.02l-.03-.16.12.14Z"></path><polygon class="cls-1" points="28.52 28.28 28.47 28.32 28.41 28.31 28.44 28.2 28.52 28.28"></polygon><path class="cls-1" d="M28.11,27.84s-.06.01-.09.02l-.03-.16.12.14Z"></path><polygon class="cls-1" points="28.52 28.28 28.47 28.32 28.41 28.31 28.44 28.2 28.52 28.28"></polygon><polygon class="cls-1" points="28.61 28.36 28.36 28.42 28.47 28.32 28.61 28.36"></polygon><polygon class="cls-1" points="28.52 28.28 28.47 28.32 28.41 28.31 28.44 28.2 28.52 28.28"></polygon></g><path class="cls-1" d="M27.34,29.39l-.05.03s-.02-.02,0-.03h.06Z"></path><path class="cls-1" d="M27.7,29.93l-.04.08s-.01,0-.02,0t-.02-.02l.08-.05Z"></path><polygon class="cls-1" points="28.05 28.7 28 28.74 27.92 28.65 28.04 28.63 28.05 28.7"></polygon><polygon class="cls-1" points="28.11 29.32 28 29.33 28.05 29.23 28.1 29.26 28.11 29.32"></polygon><path class="cls-1" d="M28.28,30.32s-.03,0-.05,0l.04-.08v.09Z"></path><polygon class="cls-1" points="28.48 29.46 28.33 29.46 28.24 29.33 28.48 29.46"></polygon><polygon class="cls-1" points="28.52 28.28 28.47 28.32 28.41 28.31 28.44 28.2 28.52 28.28"></polygon><polygon class="cls-1" points="28.61 28.36 28.36 28.42 28.47 28.32 28.61 28.36"></polygon><polygon class="cls-1" points="28.74 29.47 28.61 29.53 28.48 29.46 28.74 29.47"></polygon><polygon class="cls-1" points="28.93 30.26 28.92 30.26 28.92 30.24 28.93 30.26"></polygon><polygon class="cls-1" points="28.95 29.47 28.95 29.58 28.86 29.52 28.9 29.47 28.95 29.47"></polygon><polygon class="cls-1" points="29.19 28.71 29.17 28.87 29.07 28.6 29.19 28.71"></polygon><polygon class="cls-1" points="29.31 28.67 29.24 28.75 29.19 28.71 29.2 28.65 29.31 28.67"></polygon></g></g></g><g><g><path class="cls-1" d="M71.45,22.02s-.33-.16-.88-.41c-.55-.26-1.16-.54-1.83-.84-.68-.31-1.14-.52-1.37-.64-.98-.47-1.71-1.01-2.17-1.63-.47-.62-.71-1.35-.71-2.19,0-.71.33-1.35.99-1.93.66-.57,1.46-.86,2.43-.86s1.75.41,2.43,1.22c.69.81,1.15,1.67,1.38,2.57h.39v-3.14l-.44-.27c-.32-.17-.82-.34-1.52-.51-.69-.17-1.44-.25-2.24-.25-1.44,0-2.61.43-3.53,1.3-.93.87-1.39,1.96-1.39,3.28,0,2.37,1.54,4.22,4.61,5.56.08.04.18.09.3.15.56.23.99.41,1.27.54.29.13.65.33,1.11.61.45.27.79.53,1.04.78.24.24.47.55.67.94.21.38.33.79.37,1.22.14,1.17-.22,2.24-1.06,3.2-.85.96-1.9,1.44-3.18,1.44-1.12,0-2.17-.53-3.16-1.58-.99-1.05-1.6-2.06-1.83-3.04h-.33v3.29l.21.18c.15.11.38.25.69.41.3.16.65.32,1.06.49.4.16.9.31,1.49.42.6.12,1.22.18,1.87.18.29,0,.65-.03,1.06-.09.41-.05.94-.19,1.57-.39.64-.21,1.22-.47,1.74-.81.52-.33.99-.82,1.41-1.45.42-.64.67-1.37.75-2.19.26-2.51-.81-4.36-3.2-5.56Z"></path><path class="cls-1" d="M92.85,18c-.68-1.44-1.69-2.6-3.06-3.46-1.36-.86-2.98-1.3-4.88-1.3s-3.51.43-4.86,1.29c-1.36.86-2.38,2.01-3.06,3.45-.69,1.44-1.04,3.05-1.04,4.84s.34,3.37,1.03,4.82c.68,1.45,1.7,2.6,3.05,3.46,1.35.85,2.98,1.28,4.88,1.28s3.44-.43,4.81-1.3c1.36-.87,2.39-2.03,3.09-3.47s1.05-3.03,1.05-4.78-.34-3.39-1.01-4.83ZM90.15,27.42c-.45,1.39-1.12,2.49-2,3.3-.89.82-1.95,1.22-3.18,1.22s-2.29-.41-3.18-1.22c-.88-.82-1.54-1.92-1.99-3.31-.45-1.37-.67-2.9-.67-4.59s.23-3.22.68-4.62c.45-1.39,1.12-2.49,2-3.3s1.94-1.22,3.18-1.22,2.29.41,3.17,1.22c.88.82,1.55,1.92,2,3.32.45,1.39.67,2.93.67,4.61s-.23,3.22-.68,4.59Z"></path><path class="cls-1" d="M108.44,28.29l-.18.35c-.12.24-.33.52-.62.85-.29.34-.64.67-1.04,1-.41.33-.94.61-1.59.84-.66.22-1.37.33-2.13.33h-3.39l.02-15.55c0-.3.05-.57.16-.83.11-.25.22-.46.34-.61.12-.16.26-.31.43-.44.16-.14.28-.23.35-.27s.12-.06.16-.06v-.35h-5.7s0,.35,0,.35l.15.06c.09.06.22.16.36.31.15.14.29.32.43.53.14.2.25.48.35.82.1.34.15.72.15,1.13l-.02,13.26c0,.24-.05.46-.16.66-.11.21-.23.37-.35.49-.13.12-.28.23-.46.35s-.29.19-.35.22c-.06.03-.11.05-.15.07l-.03.39h13.11s.51-3.9.51-3.9h-.35Z"></path><path class="cls-1" d="M125,31.69c-.15-.13-.36-.41-.63-.84s-.51-.97-.71-1.62c-.11-.37-1.2-3.69-3.25-9.97.45-.03.81-.05,1.09-.05v-.53c-.39.02-.8.05-1.24.08-.68-2.11-1.31-4.07-1.9-5.88l-2.06.65-5.54,15.96c-.2.53-.46.99-.8,1.39-.33.4-.57.65-.72.74-.15.08-.27.15-.37.19v.38h3.5v-.35l-.14-.09c-.1-.06-.22-.15-.34-.26-.13-.12-.25-.27-.36-.46-.1-.19-.18-.4-.22-.65-.03-.24,0-.52.06-.83.06-.24.69-2.12,1.89-5.65.36-.98.93-1.8,1.72-2.48.8-.68,1.71-1.2,2.73-1.57,1.58,4.92,2.58,8.07,2.99,9.44.13.29.17.59.11.88-.06.3-.12.54-.17.72-.06.19-.17.37-.31.53-.15.17-.25.28-.3.32-.05.05-.09.09-.13.11v.35h5.35s0-.32,0-.32c-.02,0-.1-.06-.25-.19ZM114,21.73c.75-2.24,1.48-4.4,2.21-6.5l1.35,4.15c-1.45.51-2.64,1.29-3.56,2.35Z"></path><path class="cls-1" d="M141.74,31.58c-.35.1-.68.1-.99-.01-.32-.11-.64-.34-.96-.69-.32-.36-.58-.66-.76-.93-.19-.26-.44-.65-.75-1.16-.1-.14-.75-1.21-1.94-3.21-.45-.74-.93-1.27-1.44-1.57-.51-.31-1.16-.46-1.97-.46.55-.2,1.08-.44,1.59-.75.51-.3,1.01-.67,1.5-1.1.49-.43.88-.95,1.18-1.56.29-.6.44-1.25.44-1.94,0-.86-.19-1.6-.57-2.23-.38-.63-.89-1.11-1.53-1.44-.63-.34-1.3-.58-2.01-.74-.71-.16-1.45-.24-2.23-.24h-5.5l.03.38.14.09c.1.04.22.12.37.25.15.12.29.27.44.44.15.16.27.4.37.69.1.29.14.61.14.94v13.29c0,.29-.06.57-.16.82-.1.26-.21.46-.34.62-.12.16-.27.3-.44.44-.16.14-.28.22-.35.25-.07.03-.12.05-.16.07v.36l5.67.03v-.35l-.35-.21c-.24-.13-.47-.38-.7-.73-.24-.36-.36-.76-.36-1.21v-5.79s.63-.06.63-.06c.37,0,.77.13,1.2.4.43.26.82.57,1.18.93s.73.81,1.14,1.38c.41.57.74,1.05.97,1.44.24.39.52.87.85,1.43.33.56.54.89.62,1.01.27.45.58.82.92,1.11.35.28.68.49,1,.63.33.14.66.22,1.02.25.35.03.65.03.91,0,.25-.03.51-.08.76-.14.26-.07.42-.12.5-.15.08-.03.15-.06.21-.1l-.27-.48ZM131.74,22.87c-.54.24-.91.37-1.13.41-.22.04-.39.07-.53.09v-9.29h.98c1.04,0,1.93.39,2.67,1.18.75.78,1.12,1.76,1.12,2.94,0,.86-.17,1.63-.52,2.29-.34.67-.73,1.17-1.15,1.52-.42.34-.9.63-1.44.86Z"></path><path class="cls-1" d="M154.83,29.85c-.22.3-.47.58-.77.86-.29.27-.68.5-1.17.7s-1,.29-1.53.29h-4.68l.02-11.76h3.46c.24,0,.47.07.69.21.23.13.42.29.56.45.15.17.29.36.41.58.13.21.21.36.25.45.04.09.07.16.09.19h.38v-4.23s-.37,0-.37,0l-.09.15c-.47,1.07-1.11,1.61-1.91,1.61l-3.47.03v-5.27h4.76c.55,0,1.06.1,1.53.28.47.17.85.37,1.13.6.29.23.54.49.77.78.22.29.37.5.42.6.06.11.11.2.15.28h.35l-.32-3.06h-13.11s.03.37.03.37l.15.09c.09.04.22.13.36.25.15.13.3.28.44.44.15.17.27.4.37.7.1.29.15.61.15.97l-.02,13.26c0,.29-.05.56-.14.82-.1.25-.22.46-.34.62-.13.15-.28.3-.45.44-.16.13-.28.22-.35.25-.07.03-.12.05-.16.07v.35l13.05.02.33-3.39h-.35c-.2.38-.4.71-.62,1Z"></path></g><g><path class="cls-1" d="M74.45,41.71c-.21,1.1-1.03,1.94-2.21,1.94-1.52,0-2.39-1.39-2.39-3.05s.85-2.95,2.46-2.95c1.05,0,1.8.55,2.13,1.54h.76c-.37-1.43-1.46-2.22-2.91-2.22-1.98,0-3.21,1.47-3.21,3.66s1.12,3.7,3.14,3.7c1.63,0,2.7-1.02,3-2.62h-.77Z"></path><path class="cls-1" d="M79.37,36.98c-2.03,0-3.18,1.52-3.18,3.68s1.14,3.68,3.18,3.68,3.18-1.53,3.18-3.68-1.14-3.68-3.18-3.68ZM79.37,43.65c-1.53,0-2.4-1.29-2.4-3s.86-2.98,2.4-2.98,2.41,1.29,2.41,2.98-.88,3-2.41,3Z"></path><path class="cls-1" d="M89.01,41.71c-.21,1.1-1.03,1.94-2.21,1.94-1.52,0-2.39-1.39-2.39-3.05s.85-2.95,2.46-2.95c1.05,0,1.8.55,2.13,1.54h.76c-.37-1.43-1.46-2.22-2.91-2.22-1.98,0-3.21,1.47-3.21,3.66s1.12,3.7,3.14,3.7c1.63,0,2.7-1.02,3-2.62h-.77Z"></path><path class="cls-1" d="M91.03,37.12v7.08h.76v-7.08h-.76Z"></path><path class="cls-1" d="M98.09,37.12v6.16l-3.63-6.16h-1.03v7.08h.73v-6.15l3.63,6.15h1.03v-7.08h-.73Z"></path><path class="cls-1" d="M103.54,37.12h-1.04l-2.6,7.08h.8l.76-2.12h3.11l.77,2.12h.79l-2.59-7.08ZM101.7,41.42l.85-2.37.47-1.31.47,1.31.85,2.37h-2.64Z"></path><path class="cls-1" d="M112.67,37.12h-1.03l-2.6,7.08h.8l.76-2.12h3.11l.77,2.12h.79l-2.6-7.08ZM110.84,41.42l.85-2.37.47-1.31.46,1.31.86,2.37h-2.64Z"></path><path class="cls-1" d="M120.17,40.38c.69-.31,1.03-.88,1.03-1.54,0-1-.79-1.73-2.02-1.73h-2.82v7.08h2.97c1.34,0,2.2-.88,2.2-2.02,0-.87-.5-1.51-1.36-1.79ZM117.12,37.77h2c.85,0,1.32.48,1.32,1.11,0,.71-.57,1.21-1.28,1.21h-2.04v-2.32ZM119.18,43.52h-2.06v-2.77h2.04c.92,0,1.61.53,1.61,1.38s-.64,1.39-1.59,1.39Z"></path><path class="cls-1" d="M122.81,37.12v7.08h.76v-7.08h-.76Z"></path><path class="cls-1" d="M125.97,43.54v-2.66h3.73v-.67h-3.73v-2.43h3.97v-.66h-4.73v7.08h4.91v-.66h-4.15Z"></path><path class="cls-1" d="M136.41,43.42v-1.14c0-.67-.27-1.21-.95-1.46.65-.31,1.04-.95,1.04-1.71,0-1.13-.89-1.99-2.12-1.99h-2.92v7.08h.77v-3.04h2.13c.87,0,1.29.47,1.29,1.12v1.15c0,.34.05.6.16.77h.82c-.15-.23-.22-.48-.22-.78ZM134.36,40.48h-2.13v-2.71h2.13c.81,0,1.38.58,1.38,1.35s-.55,1.36-1.38,1.36Z"></path><path class="cls-1" d="M137.51,37.12v.66h2.34v6.42h.76v-6.42h2.35v-.66h-5.45Z"></path><path class="cls-1" d="M146.6,37.12h-1.04l-2.59,7.08h.8l.76-2.12h3.11l.76,2.12h.8l-2.6-7.08ZM144.77,41.42l.84-2.37.47-1.31.47,1.31.85,2.37h-2.63Z"></path></g></g></g></g></svg>