<?xml version="1.0" encoding="UTF-8"?>
<svg id="Layer_1" data-name="Layer 1" xmlns="http://www.w3.org/2000/svg" viewBox="0 0 1400 600">
  <defs>
    <style>
      .cls-1 {
        fill: #f2f2f2;
      }
    </style>
  </defs>
  <g>
    <path class="cls-1" d="M508.25,262.92c0,26.34,16.9,49.2,51.69,49.2,21.37,0,38.27-11.93,46.22-27.83l58.65,26.34c-15.9,32.31-50.7,63.62-111.33,63.62s-114.31-46.72-114.31-114.81c0-90.95,65.61-147.12,131.21-147.12,69.58,0,111.33,44.73,111.33,105.87,0,11.43-1.99,29.32-6.96,44.24l-166.5.5ZM612.13,213.72v-3.48c0-15.9-10.44-37.77-42.25-37.77-29.82,0-46.72,16.9-54.67,41.25h96.92Z"/>
    <path class="cls-1" d="M686.43,366.8l13.92-66.6,130.72-116.3h-102.39l13.92-64.12h202.29l-13.42,62.13-136.18,120.28h112.33l-13.91,64.61h-207.26Z"/>
    <path class="cls-1" d="M941.38,366.8l52.68-247.02h75.55l-52.68,247.02h-75.55ZM1051.72,0c23.36,0,39.26,16.4,39.26,38.27,0,28.83-23.36,47.71-48.71,47.71-22.86,0-39.26-16.4-39.26-38.27,0-26.84,21.37-47.71,48.71-47.71Z"/>
    <path class="cls-1" d="M1371.85,119.76h-102.91l-59.66,53.53-20.15,94.77,3.26,7.3,31.32,70.22,9.47,21.2h83.97l-68.57-140.16,123.27-106.86Z"/>
    <polygon class="cls-1" points="1206.87 6.98 1166.11 197.32 1143.74 303.7 1130.32 366.78 1054.78 366.78 1130.8 6.98 1206.87 6.98"/>
    <path class="cls-1" d="M410.47,192.68c0,107.75-70.38,174.18-175.67,174.18H72.47l15.56-73.28h143.83c53.61,0,97.43-31,97.43-100.9s-43.82-101.38-97.43-101.38h-100.82l15.56-73.28h88.68c104.81,0,175.19,66.91,175.19,174.66Z"/>
  </g>
  <g>
    <path class="cls-1" d="M691.52,436.21h31l33.54,116.83,35.16-116.83h26.14l35.4,116.83,33.77-116.83h30.77l-48.35,161.94h-30.07l-34.47-114.51-34.47,114.51h-29.84l-48.58-161.94Z"/>
    <path class="cls-1" d="M1032.04,523.19v74.95h-27.99v-17.35c-4.86,11.57-18.28,19.2-34.93,19.2-23.13,0-38.87-14.81-38.87-34.93,0-22.67,17.58-36.78,43.72-36.78h21.51c5.78,0,8.56-3.24,8.56-7.87,0-11.34-8.79-19.43-23.83-19.43s-24.06,9.49-24.52,19.9h-25.45c1.39-23.13,21.05-41.18,51.36-41.18s50.43,17.12,50.43,43.49ZM1004.05,548.87v-1.85h-26.14c-12.03,0-20.13,6.71-20.13,16.89,0,9.02,7.4,15.04,18.04,15.04,17.81,0,28.23-12.49,28.23-30.07Z"/>
    <path class="cls-1" d="M1057.25,431.58h28.22v166.56h-28.22v-166.56Z"/>
    <path class="cls-1" d="M1114.15,431.58h28.23v166.56h-28.23v-166.56Z"/>
    <path class="cls-1" d="M1277.47,559.28c-4.39,24.75-26.14,40.72-54.83,40.72-38.17,0-59.46-30.07-59.46-60.61s18.97-59.69,57.14-59.69,56.68,28.46,56.68,56.22c0,3.93-.23,7.4-.46,9.72h-86.06c2.08,18.74,14.11,30.77,32.16,30.77,14.57,0,24.06-6.01,27.07-17.12h27.76ZM1191.18,526.9h57.37c-1.16-14.81-11.34-25.91-28.23-25.91-15.96,0-26.14,8.33-29.15,25.91Z"/>
    <path class="cls-1" d="M1339.46,446.39v35.16h32.39v23.83h-32.39v50.89c0,11.8,6.25,17.81,16.89,17.81h15.5v24.06h-18.74c-25.45,0-42.1-14.81-42.1-40.72v-52.05h-22.9v-23.83h22.9v-35.16h28.45Z"/>
  </g>
  <polygon class="cls-1" points="654.25 463.73 621.6 567.85 28.15 567.85 50.27 463.73 654.25 463.73"/>
</svg>